<!-- Generator: Adobe Illustrator 18.0.0, SVG Export Plug-In  -->
<svg version="1.1"
	 xmlns="http://www.w3.org/2000/svg" xmlns:xlink="http://www.w3.org/1999/xlink" xmlns:a="http://ns.adobe.com/AdobeSVGViewerExtensions/3.0/"
	 x="0px" y="0px" width="571.9px" height="496.8px" viewBox="0 0 571.9 496.8" enable-background="new 0 0 571.9 496.8"
	 xml:space="preserve">
<defs>
</defs>
<g>
	<polygon fill="#FFFFFF" points="177.4,112 155.6,116.6 139.7,128.1 133.6,146.3 133.6,159.1 139.6,177.6 152.5,187.6 165.2,191.8 
		159.6,220.7 159.6,230.1 165.1,236.9 172.1,241.3 384.6,272.6 396.1,270.1 402.6,259.1 409.1,229.8 421.6,227.1 440.6,218.4 
		450.6,200.5 450.6,182.1 441.5,160.8 429,153.5 419.6,148.6 425.6,121.9 419.1,108.7 409.1,103.1 205,72.1 192.6,72.1 185.1,78.9 	
		"/>
	<g>
		<g>
			<path fill="#A1D302" d="M112.6,441.2H0l17.8-126.9h112.6L112.6,441.2z M72.3,427.1l13.9-98.7H58.1l-13.9,98.7H72.3z"/>
			<path fill="#A1D302" d="M258.8,314.3L226,377.7l15,63.5h-45.3l-7-28.6l-15.2,28.6h-45.1l32.8-63.5l-15-63.5h45.3l7,28.6
				l15.2-28.6H258.8z"/>
			<path fill="#A1D302" d="M295.3,441.2h-42.2l17.8-126.9h42.2L295.3,441.2z M314.2,307.1h-42.4l3.1-20.9h42.2L314.2,307.1z"/>
			<path fill="#A1D302" d="M423.7,441.2H311.1l17.8-126.9h63.5l-2,14.1h-21.1l-13.9,98.7h28.2l19.8-140.9h42.2L423.7,441.2z"/>
			<path fill="#A1D302" d="M554.1,441.2H441.5l17.8-126.9h112.6L554.1,441.2z M513.8,427.1l13.9-98.7h-28.1l-13.9,98.7H513.8z"/>
		</g>
		<g>
			<g>
				<g>
					<path d="M164.4,195.8c-23.9-3.7-40.3-26.1-36.6-49.9c3.7-23.9,26.1-40.3,49.9-36.6l-1.4,9c-18.9-2.9-36.6,10.1-39.5,29
						c-2.9,18.9,10.1,36.6,29,39.5L164.4,195.8z"/>
				</g>
				<g>
					<path d="M405.6,232.8l1.4-9c18.9,2.9,36.6-10.1,39.5-29c2.9-18.9-10.1-36.6-29-39.5l1.4-9c23.9,3.7,40.3,26.1,36.6,49.9
						C451.9,220.1,429.5,236.5,405.6,232.8z"/>
				</g>
			</g>
			<g>
				<g>
					
						<rect x="395.7" y="43.3" transform="matrix(0.704 0.7102 -0.7102 0.704 172.0068 -261.5978)" fill="#FFFFFF" width="8.2" height="64.4"/>
				</g>
				<g>
					<path fill="#FFFFFF" d="M424,62.8c-8-1.2-13.4-8.7-12.2-16.6s8.7-13.4,16.6-12.2c8,1.2,13.4,8.7,12.2,16.6S432,64,424,62.8z
						 M427.2,42c-3.5-0.5-6.7,1.9-7.3,5.3s1.9,6.7,5.3,7.3s6.7-1.9,7.3-5.3C433.1,45.8,430.7,42.6,427.2,42z"/>
				</g>
			</g>
			<g>
				<path d="M384.5,278.1l-211.9-32.6c-10.9-1.7-18.5-11.9-16.8-22.9l21.4-139.5c1.7-10.9,11.9-18.5,22.9-16.8L412,99
					c10.9,1.7,18.5,11.9,16.8,22.9l-21.4,139.5C405.7,272.3,395.4,279.8,384.5,278.1z M198.7,75.4c-6-0.9-11.6,3.2-12.5,9.2
					l-21.4,139.5c-0.9,6,3.2,11.6,9.2,12.5l211.9,32.6c6,0.9,11.6-3.2,12.5-9.2l21.4-139.5c0.9-6-3.2-11.6-9.2-12.5L198.7,75.4z"/>
			</g>
			<g>
				<g>
					<circle fill="none" stroke="#000000" stroke-width="6" stroke-miterlimit="10" cx="241.9" cy="143.1" r="21.2"/>
				</g>
				<g>
					<circle fill="none" stroke="#000000" stroke-width="6" stroke-miterlimit="10" cx="349.1" cy="159.6" r="21.2"/>
				</g>
			</g>
			<g>
				<path d="M309.8,204.5l-46.8-7.2l29.7-37L309.8,204.5z M271.4,194l31.2,4.8l-11.5-29.4L271.4,194z"/>
			</g>
			<g>
				<g>
					<path d="M350.5,258.9l-142.9-22c-10-1.5-16.9-10.9-15.3-20.9c1.5-10,10.9-16.9,20.9-15.3l142.9,22c10,1.5,16.9,10.9,15.3,20.9
						C369.9,253.6,360.5,260.5,350.5,258.9z M212.6,205.2c-7.5-1.2-14.6,4-15.7,11.5c-1.2,7.5,4,14.6,11.5,15.7l142.9,22
						c7.5,1.2,14.6-4,15.7-11.5c1.2-7.5-4-14.6-11.5-15.7L212.6,205.2z"/>
				</g>
				<g>
					<rect x="220.4" y="204.7" transform="matrix(0.9884 0.1519 -0.1519 0.9884 36.106 -31.2647)" width="4.6" height="32.1"/>
				</g>
				<g>
					<rect x="248.8" y="209" transform="matrix(0.9884 0.1519 -0.1519 0.9884 37.0982 -35.5273)" width="4.6" height="32.1"/>
				</g>
				<g>
					<rect x="277.2" y="213.4" transform="matrix(0.9884 0.1519 -0.1519 0.9884 38.0904 -39.79)" width="4.6" height="32.1"/>
				</g>
				<g>
					<rect x="305.6" y="217.8" transform="matrix(0.9884 0.1519 -0.1519 0.9884 39.0826 -44.0526)" width="4.6" height="32.1"/>
				</g>
				<g>
					<rect x="334" y="222.1" transform="matrix(0.9884 0.1519 -0.1519 0.9884 40.0748 -48.3153)" width="4.6" height="32.1"/>
				</g>
			</g>
			<g>
				<circle cx="243.7" cy="144.4" r="9.1"/>
			</g>
			<g>
				<circle cx="350.1" cy="160.8" r="9.1"/>
			</g>
			<g>
				<polygon points="141.3,173 139.6,170.9 153.4,160.3 156.4,140.7 147.1,121.1 149.6,120 159.2,140.3 155.9,161.8 				"/>
			</g>
			<g>
				<polygon points="436.5,218.4 425.9,203.3 429.2,181.7 444.5,165.3 446.5,167.1 431.8,183 428.8,202.6 438.7,216.8 				"/>
			</g>
			<g>
				<g>
					<polygon fill="#FFFFFF" points="229,70.9 205,21.9 212.3,18.1 241.3,73 					"/>
				</g>
				<g>
					<path fill="#FFFFFF" d="M204.4,29c-8-1.2-13.4-8.7-12.2-16.6s8.7-13.4,16.6-12.2s13.4,8.7,12.2,16.6
						C219.8,24.8,212.3,30.2,204.4,29z M207.6,8.3c-3.5-0.5-6.7,1.9-7.3,5.3s1.9,6.7,5.3,7.3c3.5,0.5,6.7-1.9,7.3-5.3
						S211,8.8,207.6,8.3z"/>
				</g>
			</g>
		</g>
		<g>
			<path fill="#FFFFFF" d="M32,490.4c-0.6,0.9-1.3,1.7-2.1,2.4c-0.8,0.8-1.7,1.4-2.8,2c-1.1,0.6-2.2,1-3.5,1.4
				c-1.3,0.3-2.7,0.5-4.2,0.5c-2.5,0-4.9-0.4-7.1-1.3c-2.2-0.9-4-2.1-5.6-3.7c-1.6-1.6-2.8-3.4-3.6-5.6c-0.9-2.2-1.3-4.5-1.3-7.1
				c0-2.6,0.4-4.9,1.3-7.1c0.9-2.2,2.1-4,3.7-5.6c1.6-1.6,3.4-2.8,5.6-3.7c2.1-0.9,4.5-1.3,7-1.3c1.2,0,2.5,0.1,3.6,0.4
				c1.2,0.3,2.3,0.6,3.4,1.1c1,0.5,2,1,2.9,1.7c0.9,0.7,1.6,1.4,2.1,2.2l-2.9,2.1c-0.3-0.5-0.8-1.1-1.4-1.6c-0.6-0.5-1.3-1-2.1-1.4
				c-0.8-0.4-1.7-0.7-2.6-1c-0.9-0.3-1.9-0.4-3-0.4c-2.2,0-4.2,0.4-5.9,1.2c-1.7,0.8-3.2,1.9-4.4,3.2c-1.2,1.3-2.1,2.9-2.8,4.7
				c-0.6,1.8-1,3.6-1,5.6c0,2,0.3,3.8,1,5.6c0.7,1.8,1.6,3.3,2.8,4.7c1.2,1.3,2.7,2.4,4.4,3.2c1.7,0.8,3.7,1.2,5.8,1.2
				c1.9,0,3.8-0.4,5.5-1.2c1.7-0.8,3.2-2.1,4.4-3.8L32,490.4z"/>
			<path fill="#FFFFFF" d="M51.9,495.9h-3.4v-33.7h9.9c1.6,0,3.2,0.2,4.6,0.5c1.4,0.3,2.6,0.8,3.7,1.5c1,0.7,1.8,1.6,2.4,2.8
				c0.6,1.1,0.9,2.5,0.9,4.2c0,1.2-0.2,2.4-0.7,3.4c-0.4,1-1,1.9-1.8,2.6c-0.8,0.7-1.7,1.3-2.7,1.8c-1,0.4-2.2,0.7-3.4,0.9l9.9,16.1
				h-4.2l-9.3-15.8h-5.7V495.9z M51.9,477.2h6c2.8,0,4.9-0.5,6.4-1.5c1.5-1,2.2-2.5,2.2-4.5c0-1.1-0.2-2-0.6-2.8
				c-0.4-0.8-1-1.4-1.7-1.9c-0.7-0.5-1.6-0.8-2.7-1c-1-0.2-2.2-0.3-3.5-0.3h-6.1V477.2z"/>
			<path fill="#FFFFFF" d="M90.9,492.9h18.1v3H87.4v-33.7h20.9v3H90.9v11.6h16.3v3H90.9V492.9z"/>
			<path fill="#FFFFFF" d="M125.9,495.9h-3.8l14.6-33.7h3.3l14.5,33.7h-3.8l-3.7-8.9h-17.4L125.9,495.9z M130.8,483.9h14.9
				l-7.4-17.9L130.8,483.9z"/>
			<path fill="#FFFFFF" d="M177.9,495.9h-3.4v-30.7h-11.3v-3h26v3h-11.3V495.9z"/>
			<path fill="#FFFFFF" d="M208.2,495.9h-3.4v-33.7h3.4V495.9z"/>
			<path fill="#FFFFFF" d="M238,491.5L238,491.5l11.1-29.3h3.7l-12.9,33.7h-3.6l-12.9-33.7h3.7L238,491.5z"/>
			<path fill="#FFFFFF" d="M271.2,492.9h18.1v3h-21.5v-33.7h20.9v3h-17.5v11.6h16.3v3h-16.3V492.9z"/>
			<path fill="#FFFFFF" d="M345.2,467.6c-0.7-1-1.7-1.8-2.8-2.5c-1.1-0.6-2.5-0.9-4.1-0.9c-0.8,0-1.7,0.1-2.5,0.4
				c-0.9,0.3-1.6,0.6-2.3,1.2c-0.7,0.5-1.3,1.2-1.7,2c-0.4,0.8-0.6,1.7-0.6,2.8c0,1.1,0.2,2,0.6,2.7c0.4,0.7,1,1.3,1.6,1.8
				c0.7,0.5,1.5,0.9,2.3,1.2c0.9,0.3,1.8,0.6,2.7,1c1.2,0.4,2.3,0.8,3.5,1.2s2.3,1,3.2,1.7c0.9,0.7,1.7,1.6,2.3,2.7
				c0.6,1.1,0.9,2.5,0.9,4.2c0,1.7-0.3,3.1-1,4.4c-0.6,1.2-1.5,2.2-2.5,3c-1,0.8-2.2,1.4-3.5,1.8c-1.3,0.4-2.6,0.6-4,0.6
				c-1,0-2-0.1-3-0.3c-1-0.2-2-0.5-2.9-0.9c-0.9-0.4-1.8-0.9-2.6-1.6s-1.5-1.4-2.1-2.2l3-2.2c0.7,1.2,1.8,2.2,3.1,3
				c1.3,0.8,2.9,1.2,4.6,1.2c0.9,0,1.7-0.1,2.6-0.4s1.7-0.7,2.4-1.2c0.7-0.6,1.3-1.2,1.8-2c0.5-0.8,0.7-1.8,0.7-2.8
				c0-1.2-0.2-2.2-0.7-2.9c-0.5-0.8-1.1-1.4-1.8-2c-0.8-0.5-1.6-1-2.6-1.3c-1-0.3-2-0.7-3.1-1c-1.1-0.3-2.2-0.7-3.3-1.2
				c-1.1-0.4-2-1-2.9-1.7c-0.9-0.7-1.5-1.6-2.1-2.6s-0.8-2.3-0.8-3.9c0-1.6,0.3-3,1-4.2c0.6-1.2,1.5-2.1,2.5-2.9
				c1-0.8,2.2-1.3,3.5-1.7c1.3-0.4,2.5-0.5,3.8-0.5c2.3,0,4.2,0.4,5.9,1.2c1.6,0.8,2.8,1.8,3.7,2.9L345.2,467.6z"/>
			<path fill="#FFFFFF" d="M376.2,495.9h-3.4v-30.7h-11.3v-3h26v3h-11.3V495.9z"/>
			<path fill="#FFFFFF" d="M415.4,496.8c-2.5,0-4.6-0.4-6.2-1.3c-1.6-0.9-2.9-2-3.9-3.3c-1-1.3-1.6-2.8-2-4.4
				c-0.4-1.6-0.5-3.1-0.5-4.5v-21.2h3.4V483c0,1.4,0.2,2.7,0.5,4c0.3,1.3,0.8,2.4,1.5,3.4c0.7,1,1.7,1.8,2.8,2.4
				c1.2,0.6,2.6,0.9,4.3,0.9c1.7,0,3.2-0.3,4.3-0.9c1.2-0.6,2.1-1.4,2.8-2.4c0.7-1,1.2-2.1,1.5-3.4c0.3-1.3,0.5-2.6,0.5-4v-20.8h3.4
				v21.2c0,1.4-0.2,2.9-0.5,4.5c-0.4,1.6-1,3-2,4.4c-1,1.3-2.2,2.4-3.9,3.3C420,496.3,417.9,496.8,415.4,496.8z"/>
			<path fill="#FFFFFF" d="M447.3,462.2h11.2c2.1,0,4.2,0.4,6.3,1c2.1,0.7,4,1.8,5.7,3.2c1.7,1.4,3.1,3.2,4.1,5.3
				c1,2.1,1.6,4.6,1.6,7.4c0,2.8-0.5,5.3-1.6,7.4c-1,2.1-2.4,3.9-4.1,5.3c-1.7,1.4-3.6,2.5-5.7,3.2c-2.1,0.7-4.2,1-6.3,1h-11.2
				V462.2z M450.7,492.9h6.8c2.5,0,4.8-0.4,6.6-1.2c1.9-0.8,3.5-1.8,4.7-3.1c1.2-1.3,2.2-2.8,2.8-4.4s0.9-3.4,0.9-5.1
				c0-1.7-0.3-3.4-0.9-5.1c-0.6-1.7-1.5-3.1-2.8-4.4c-1.2-1.3-2.8-2.3-4.7-3.1c-1.9-0.8-4.1-1.2-6.6-1.2h-6.8V492.9z"/>
			<path fill="#FFFFFF" d="M497.3,495.9h-3.4v-33.7h3.4V495.9z"/>
			<path fill="#FFFFFF" d="M550.1,479.1c0,2.6-0.4,4.9-1.3,7.1c-0.9,2.2-2.1,4-3.7,5.6c-1.6,1.6-3.4,2.8-5.6,3.7
				c-2.1,0.9-4.5,1.3-7,1.3c-2.5,0-4.8-0.4-7-1.3c-2.1-0.9-4-2.1-5.6-3.7c-1.6-1.6-2.8-3.4-3.7-5.6c-0.9-2.2-1.3-4.5-1.3-7.1
				c0-2.6,0.4-4.9,1.3-7.1c0.9-2.2,2.1-4,3.7-5.6c1.6-1.6,3.4-2.8,5.6-3.7c2.1-0.9,4.5-1.3,7-1.3c2.5,0,4.8,0.4,7,1.3
				c2.1,0.9,4,2.1,5.6,3.7c1.6,1.6,2.8,3.4,3.7,5.6C549.6,474.1,550.1,476.5,550.1,479.1z M546.4,479.1c0-2-0.3-3.8-1-5.6
				c-0.6-1.8-1.6-3.3-2.8-4.7c-1.2-1.3-2.7-2.4-4.4-3.2c-1.7-0.8-3.7-1.2-5.8-1.2c-2.2,0-4.1,0.4-5.8,1.2c-1.7,0.8-3.2,1.9-4.4,3.2
				c-1.2,1.3-2.1,2.9-2.8,4.7c-0.6,1.8-1,3.6-1,5.6s0.3,3.8,1,5.6c0.6,1.8,1.6,3.3,2.8,4.7c1.2,1.3,2.7,2.4,4.4,3.2
				c1.7,0.8,3.7,1.2,5.8,1.2c2.2,0,4.1-0.4,5.8-1.2c1.7-0.8,3.2-1.9,4.4-3.2c1.2-1.3,2.1-2.9,2.8-4.7
				C546.1,482.9,546.4,481,546.4,479.1z"/>
		</g>
	</g>
</g>
</svg>
